G04 #@! TF.GenerationSoftware,KiCad,Pcbnew,(5.0.2)-1*
G04 #@! TF.CreationDate,2020-02-24T21:14:20+01:00*
G04 #@! TF.ProjectId,Poziomica 1.0,506f7a69-6f6d-4696-9361-20312e302e6b,rev?*
G04 #@! TF.SameCoordinates,Original*
G04 #@! TF.FileFunction,Copper,L1,Top*
G04 #@! TF.FilePolarity,Positive*
%FSLAX46Y46*%
G04 Gerber Fmt 4.6, Leading zero omitted, Abs format (unit mm)*
G04 Created by KiCad (PCBNEW (5.0.2)-1) date 24.02.2020 21:14:20*
%MOMM*%
%LPD*%
G01*
G04 APERTURE LIST*
G04 #@! TA.AperFunction,ComponentPad*
%ADD10C,2.000000*%
G04 #@! TD*
G04 #@! TA.AperFunction,SMDPad,CuDef*
%ADD11R,1.270000X1.780000*%
G04 #@! TD*
G04 #@! TA.AperFunction,ComponentPad*
%ADD12C,1.500000*%
G04 #@! TD*
G04 #@! TA.AperFunction,ComponentPad*
%ADD13C,1.800000*%
G04 #@! TD*
G04 #@! TA.AperFunction,Conductor*
%ADD14C,0.100000*%
G04 #@! TD*
G04 #@! TA.AperFunction,SMDPad,CuDef*
%ADD15C,0.950000*%
G04 #@! TD*
G04 #@! TA.AperFunction,ViaPad*
%ADD16C,5.000000*%
G04 #@! TD*
G04 #@! TA.AperFunction,ViaPad*
%ADD17C,0.800000*%
G04 #@! TD*
G04 #@! TA.AperFunction,Conductor*
%ADD18C,0.400000*%
G04 #@! TD*
G04 #@! TA.AperFunction,Conductor*
%ADD19C,0.250000*%
G04 #@! TD*
G04 APERTURE END LIST*
D10*
G04 #@! TO.P,BT1,3*
G04 #@! TO.N,N/C*
X11600000Y-2610000D03*
G04 #@! TO.P,BT1,2*
G04 #@! TO.N,GND*
X60700000Y-7920000D03*
G04 #@! TO.P,BT1,1*
G04 #@! TO.N,Net-(BT1-Pad1)*
X11600000Y-7920000D03*
G04 #@! TD*
D11*
G04 #@! TO.P,SW2,1*
G04 #@! TO.N,ZERO*
X42710000Y-34395000D03*
X42710000Y-38205000D03*
G04 #@! TO.P,SW2,2*
G04 #@! TO.N,GND*
X45250000Y-34395000D03*
X45250000Y-38205000D03*
G04 #@! TD*
G04 #@! TO.P,SW1,1*
G04 #@! TO.N,INT0*
X57710000Y-34395000D03*
X57710000Y-38205000D03*
G04 #@! TO.P,SW1,2*
G04 #@! TO.N,GND*
X60250000Y-34395000D03*
X60250000Y-38205000D03*
G04 #@! TD*
D12*
G04 #@! TO.P,Y1,1*
G04 #@! TO.N,Net-(C1-Pad1)*
X53600000Y-37800000D03*
G04 #@! TO.P,Y1,2*
G04 #@! TO.N,Net-(C2-Pad1)*
X48720000Y-37800000D03*
G04 #@! TD*
D13*
G04 #@! TO.P,J1,10*
G04 #@! TO.N,GND*
X55880000Y-16810000D03*
G04 #@! TO.P,J1,9*
G04 #@! TO.N,MISO*
X55880000Y-19350000D03*
G04 #@! TO.P,J1,8*
G04 #@! TO.N,GND*
X53340000Y-16810000D03*
G04 #@! TO.P,J1,7*
G04 #@! TO.N,SCK*
X53340000Y-19350000D03*
G04 #@! TO.P,J1,6*
G04 #@! TO.N,GND*
X50800000Y-16810000D03*
G04 #@! TO.P,J1,5*
G04 #@! TO.N,RESET*
X50800000Y-19350000D03*
D10*
G04 #@! TO.P,J1,4*
G04 #@! TO.N,GND*
X48260000Y-16810000D03*
D13*
G04 #@! TO.P,J1,3*
G04 #@! TO.N,Net-(J1-Pad3)*
X48260000Y-19350000D03*
G04 #@! TO.P,J1,2*
G04 #@! TO.N,+3V3*
X45720000Y-16810000D03*
D14*
G04 #@! TD*
G04 #@! TO.N,MOSI*
G04 #@! TO.C,J1*
G36*
X46269009Y-18352408D02*
X46317545Y-18359607D01*
X46365142Y-18371530D01*
X46411342Y-18388060D01*
X46455698Y-18409039D01*
X46497785Y-18434265D01*
X46537197Y-18463495D01*
X46573553Y-18496447D01*
X46606505Y-18532803D01*
X46635735Y-18572215D01*
X46660961Y-18614302D01*
X46681940Y-18658658D01*
X46698470Y-18704858D01*
X46710393Y-18752455D01*
X46717592Y-18800991D01*
X46720000Y-18850000D01*
X46720000Y-19850000D01*
X46717592Y-19899009D01*
X46710393Y-19947545D01*
X46698470Y-19995142D01*
X46681940Y-20041342D01*
X46660961Y-20085698D01*
X46635735Y-20127785D01*
X46606505Y-20167197D01*
X46573553Y-20203553D01*
X46537197Y-20236505D01*
X46497785Y-20265735D01*
X46455698Y-20290961D01*
X46411342Y-20311940D01*
X46365142Y-20328470D01*
X46317545Y-20340393D01*
X46269009Y-20347592D01*
X46220000Y-20350000D01*
X45220000Y-20350000D01*
X45170991Y-20347592D01*
X45122455Y-20340393D01*
X45074858Y-20328470D01*
X45028658Y-20311940D01*
X44984302Y-20290961D01*
X44942215Y-20265735D01*
X44902803Y-20236505D01*
X44866447Y-20203553D01*
X44833495Y-20167197D01*
X44804265Y-20127785D01*
X44779039Y-20085698D01*
X44758060Y-20041342D01*
X44741530Y-19995142D01*
X44729607Y-19947545D01*
X44722408Y-19899009D01*
X44720000Y-19850000D01*
X44720000Y-18850000D01*
X44722408Y-18800991D01*
X44729607Y-18752455D01*
X44741530Y-18704858D01*
X44758060Y-18658658D01*
X44779039Y-18614302D01*
X44804265Y-18572215D01*
X44833495Y-18532803D01*
X44866447Y-18496447D01*
X44902803Y-18463495D01*
X44942215Y-18434265D01*
X44984302Y-18409039D01*
X45028658Y-18388060D01*
X45074858Y-18371530D01*
X45122455Y-18359607D01*
X45170991Y-18352408D01*
X45220000Y-18350000D01*
X46220000Y-18350000D01*
X46269009Y-18352408D01*
X46269009Y-18352408D01*
G37*
D10*
G04 #@! TO.P,J1,1*
G04 #@! TO.N,MOSI*
X45720000Y-19350000D03*
G04 #@! TD*
D14*
G04 #@! TO.N,GND*
G04 #@! TO.C,C11*
G36*
X52235779Y-34326144D02*
X52258834Y-34329563D01*
X52281443Y-34335227D01*
X52303387Y-34343079D01*
X52324457Y-34353044D01*
X52344448Y-34365026D01*
X52363168Y-34378910D01*
X52380438Y-34394562D01*
X52396090Y-34411832D01*
X52409974Y-34430552D01*
X52421956Y-34450543D01*
X52431921Y-34471613D01*
X52439773Y-34493557D01*
X52445437Y-34516166D01*
X52448856Y-34539221D01*
X52450000Y-34562500D01*
X52450000Y-35037500D01*
X52448856Y-35060779D01*
X52445437Y-35083834D01*
X52439773Y-35106443D01*
X52431921Y-35128387D01*
X52421956Y-35149457D01*
X52409974Y-35169448D01*
X52396090Y-35188168D01*
X52380438Y-35205438D01*
X52363168Y-35221090D01*
X52344448Y-35234974D01*
X52324457Y-35246956D01*
X52303387Y-35256921D01*
X52281443Y-35264773D01*
X52258834Y-35270437D01*
X52235779Y-35273856D01*
X52212500Y-35275000D01*
X51637500Y-35275000D01*
X51614221Y-35273856D01*
X51591166Y-35270437D01*
X51568557Y-35264773D01*
X51546613Y-35256921D01*
X51525543Y-35246956D01*
X51505552Y-35234974D01*
X51486832Y-35221090D01*
X51469562Y-35205438D01*
X51453910Y-35188168D01*
X51440026Y-35169448D01*
X51428044Y-35149457D01*
X51418079Y-35128387D01*
X51410227Y-35106443D01*
X51404563Y-35083834D01*
X51401144Y-35060779D01*
X51400000Y-35037500D01*
X51400000Y-34562500D01*
X51401144Y-34539221D01*
X51404563Y-34516166D01*
X51410227Y-34493557D01*
X51418079Y-34471613D01*
X51428044Y-34450543D01*
X51440026Y-34430552D01*
X51453910Y-34411832D01*
X51469562Y-34394562D01*
X51486832Y-34378910D01*
X51505552Y-34365026D01*
X51525543Y-34353044D01*
X51546613Y-34343079D01*
X51568557Y-34335227D01*
X51591166Y-34329563D01*
X51614221Y-34326144D01*
X51637500Y-34325000D01*
X52212500Y-34325000D01*
X52235779Y-34326144D01*
X52235779Y-34326144D01*
G37*
D15*
G04 #@! TD*
G04 #@! TO.P,C11,2*
G04 #@! TO.N,GND*
X51925000Y-34800000D03*
D14*
G04 #@! TO.N,INT0*
G04 #@! TO.C,C11*
G36*
X53985779Y-34326144D02*
X54008834Y-34329563D01*
X54031443Y-34335227D01*
X54053387Y-34343079D01*
X54074457Y-34353044D01*
X54094448Y-34365026D01*
X54113168Y-34378910D01*
X54130438Y-34394562D01*
X54146090Y-34411832D01*
X54159974Y-34430552D01*
X54171956Y-34450543D01*
X54181921Y-34471613D01*
X54189773Y-34493557D01*
X54195437Y-34516166D01*
X54198856Y-34539221D01*
X54200000Y-34562500D01*
X54200000Y-35037500D01*
X54198856Y-35060779D01*
X54195437Y-35083834D01*
X54189773Y-35106443D01*
X54181921Y-35128387D01*
X54171956Y-35149457D01*
X54159974Y-35169448D01*
X54146090Y-35188168D01*
X54130438Y-35205438D01*
X54113168Y-35221090D01*
X54094448Y-35234974D01*
X54074457Y-35246956D01*
X54053387Y-35256921D01*
X54031443Y-35264773D01*
X54008834Y-35270437D01*
X53985779Y-35273856D01*
X53962500Y-35275000D01*
X53387500Y-35275000D01*
X53364221Y-35273856D01*
X53341166Y-35270437D01*
X53318557Y-35264773D01*
X53296613Y-35256921D01*
X53275543Y-35246956D01*
X53255552Y-35234974D01*
X53236832Y-35221090D01*
X53219562Y-35205438D01*
X53203910Y-35188168D01*
X53190026Y-35169448D01*
X53178044Y-35149457D01*
X53168079Y-35128387D01*
X53160227Y-35106443D01*
X53154563Y-35083834D01*
X53151144Y-35060779D01*
X53150000Y-35037500D01*
X53150000Y-34562500D01*
X53151144Y-34539221D01*
X53154563Y-34516166D01*
X53160227Y-34493557D01*
X53168079Y-34471613D01*
X53178044Y-34450543D01*
X53190026Y-34430552D01*
X53203910Y-34411832D01*
X53219562Y-34394562D01*
X53236832Y-34378910D01*
X53255552Y-34365026D01*
X53275543Y-34353044D01*
X53296613Y-34343079D01*
X53318557Y-34335227D01*
X53341166Y-34329563D01*
X53364221Y-34326144D01*
X53387500Y-34325000D01*
X53962500Y-34325000D01*
X53985779Y-34326144D01*
X53985779Y-34326144D01*
G37*
D15*
G04 #@! TD*
G04 #@! TO.P,C11,1*
G04 #@! TO.N,INT0*
X53675000Y-34800000D03*
D14*
G04 #@! TO.N,ZERO*
G04 #@! TO.C,C12*
G36*
X48035779Y-34326144D02*
X48058834Y-34329563D01*
X48081443Y-34335227D01*
X48103387Y-34343079D01*
X48124457Y-34353044D01*
X48144448Y-34365026D01*
X48163168Y-34378910D01*
X48180438Y-34394562D01*
X48196090Y-34411832D01*
X48209974Y-34430552D01*
X48221956Y-34450543D01*
X48231921Y-34471613D01*
X48239773Y-34493557D01*
X48245437Y-34516166D01*
X48248856Y-34539221D01*
X48250000Y-34562500D01*
X48250000Y-35037500D01*
X48248856Y-35060779D01*
X48245437Y-35083834D01*
X48239773Y-35106443D01*
X48231921Y-35128387D01*
X48221956Y-35149457D01*
X48209974Y-35169448D01*
X48196090Y-35188168D01*
X48180438Y-35205438D01*
X48163168Y-35221090D01*
X48144448Y-35234974D01*
X48124457Y-35246956D01*
X48103387Y-35256921D01*
X48081443Y-35264773D01*
X48058834Y-35270437D01*
X48035779Y-35273856D01*
X48012500Y-35275000D01*
X47437500Y-35275000D01*
X47414221Y-35273856D01*
X47391166Y-35270437D01*
X47368557Y-35264773D01*
X47346613Y-35256921D01*
X47325543Y-35246956D01*
X47305552Y-35234974D01*
X47286832Y-35221090D01*
X47269562Y-35205438D01*
X47253910Y-35188168D01*
X47240026Y-35169448D01*
X47228044Y-35149457D01*
X47218079Y-35128387D01*
X47210227Y-35106443D01*
X47204563Y-35083834D01*
X47201144Y-35060779D01*
X47200000Y-35037500D01*
X47200000Y-34562500D01*
X47201144Y-34539221D01*
X47204563Y-34516166D01*
X47210227Y-34493557D01*
X47218079Y-34471613D01*
X47228044Y-34450543D01*
X47240026Y-34430552D01*
X47253910Y-34411832D01*
X47269562Y-34394562D01*
X47286832Y-34378910D01*
X47305552Y-34365026D01*
X47325543Y-34353044D01*
X47346613Y-34343079D01*
X47368557Y-34335227D01*
X47391166Y-34329563D01*
X47414221Y-34326144D01*
X47437500Y-34325000D01*
X48012500Y-34325000D01*
X48035779Y-34326144D01*
X48035779Y-34326144D01*
G37*
D15*
G04 #@! TD*
G04 #@! TO.P,C12,1*
G04 #@! TO.N,ZERO*
X47725000Y-34800000D03*
D14*
G04 #@! TO.N,GND*
G04 #@! TO.C,C12*
G36*
X49785779Y-34326144D02*
X49808834Y-34329563D01*
X49831443Y-34335227D01*
X49853387Y-34343079D01*
X49874457Y-34353044D01*
X49894448Y-34365026D01*
X49913168Y-34378910D01*
X49930438Y-34394562D01*
X49946090Y-34411832D01*
X49959974Y-34430552D01*
X49971956Y-34450543D01*
X49981921Y-34471613D01*
X49989773Y-34493557D01*
X49995437Y-34516166D01*
X49998856Y-34539221D01*
X50000000Y-34562500D01*
X50000000Y-35037500D01*
X49998856Y-35060779D01*
X49995437Y-35083834D01*
X49989773Y-35106443D01*
X49981921Y-35128387D01*
X49971956Y-35149457D01*
X49959974Y-35169448D01*
X49946090Y-35188168D01*
X49930438Y-35205438D01*
X49913168Y-35221090D01*
X49894448Y-35234974D01*
X49874457Y-35246956D01*
X49853387Y-35256921D01*
X49831443Y-35264773D01*
X49808834Y-35270437D01*
X49785779Y-35273856D01*
X49762500Y-35275000D01*
X49187500Y-35275000D01*
X49164221Y-35273856D01*
X49141166Y-35270437D01*
X49118557Y-35264773D01*
X49096613Y-35256921D01*
X49075543Y-35246956D01*
X49055552Y-35234974D01*
X49036832Y-35221090D01*
X49019562Y-35205438D01*
X49003910Y-35188168D01*
X48990026Y-35169448D01*
X48978044Y-35149457D01*
X48968079Y-35128387D01*
X48960227Y-35106443D01*
X48954563Y-35083834D01*
X48951144Y-35060779D01*
X48950000Y-35037500D01*
X48950000Y-34562500D01*
X48951144Y-34539221D01*
X48954563Y-34516166D01*
X48960227Y-34493557D01*
X48968079Y-34471613D01*
X48978044Y-34450543D01*
X48990026Y-34430552D01*
X49003910Y-34411832D01*
X49019562Y-34394562D01*
X49036832Y-34378910D01*
X49055552Y-34365026D01*
X49075543Y-34353044D01*
X49096613Y-34343079D01*
X49118557Y-34335227D01*
X49141166Y-34329563D01*
X49164221Y-34326144D01*
X49187500Y-34325000D01*
X49762500Y-34325000D01*
X49785779Y-34326144D01*
X49785779Y-34326144D01*
G37*
D15*
G04 #@! TD*
G04 #@! TO.P,C12,2*
G04 #@! TO.N,GND*
X49475000Y-34800000D03*
D16*
G04 #@! TO.N,*
X5000000Y-43000000D03*
X5000000Y-5000000D03*
X60000000Y-43000000D03*
D17*
G04 #@! TO.N,+3V3*
X45729000Y-25192000D03*
X54356000Y-28748000D03*
G04 #@! TO.N,SCL*
X52324000Y-27224000D03*
X37800000Y-22800001D03*
G04 #@! TO.N,GND*
X41910000Y-29002000D03*
X46990000Y-28494000D03*
X37592000Y-24938000D03*
X55199998Y-34400000D03*
X35560004Y-24176000D03*
X33400000Y-18100000D03*
X39250000Y-30000000D03*
G04 #@! TO.N,SDA*
X53594000Y-26208000D03*
X31250000Y-21000000D03*
X40000000Y-21750006D03*
G04 #@! TO.N,INT1*
X55626000Y-29764000D03*
X43434000Y-28494000D03*
G04 #@! TO.N,RESET*
X47244002Y-21636000D03*
X42093940Y-22190706D03*
X58000000Y-23400000D03*
G04 #@! TO.N,SCK*
X48768000Y-23668000D03*
X51562012Y-21128000D03*
G04 #@! TO.N,INT0*
X59400000Y-31999996D03*
G04 #@! TO.N,ZERO*
X46600000Y-31599990D03*
G04 #@! TD*
D18*
G04 #@! TO.N,+3V3*
X54755999Y-28348001D02*
X54356000Y-28748000D01*
X45778999Y-25241999D02*
X45729000Y-25192000D01*
X54102000Y-25241999D02*
X45778999Y-25241999D01*
X54102000Y-25241999D02*
X55118000Y-26257999D01*
X55118000Y-27986000D02*
X54755999Y-28348001D01*
X55118000Y-26257999D02*
X55118000Y-27986000D01*
D19*
G04 #@! TO.N,SCL*
X37800001Y-22800001D02*
X37800000Y-22800001D01*
X41824001Y-26824001D02*
X37800001Y-22800001D01*
X52324000Y-27224000D02*
X51924001Y-26824001D01*
X51924001Y-26824001D02*
X41824001Y-26824001D01*
D18*
G04 #@! TO.N,GND*
X45250000Y-34395000D02*
X45250000Y-38205000D01*
X50800000Y-34800000D02*
X51925000Y-34800000D01*
X50800000Y-34800000D02*
X49475000Y-34800000D01*
X53765683Y-32400000D02*
X55199998Y-33834315D01*
X55199998Y-33834315D02*
X55199998Y-34400000D01*
X53200000Y-32400000D02*
X53765683Y-32400000D01*
X50800000Y-34800000D02*
X53200000Y-32400000D01*
X37592000Y-24938000D02*
X36830000Y-24176000D01*
X36830000Y-24176000D02*
X36125689Y-24176000D01*
X36125689Y-24176000D02*
X35560004Y-24176000D01*
X41910000Y-28436315D02*
X41910000Y-29002000D01*
X42846315Y-27500000D02*
X41910000Y-28436315D01*
X46990000Y-28494000D02*
X45996000Y-27500000D01*
X45996000Y-27500000D02*
X42846315Y-27500000D01*
D19*
G04 #@! TO.N,SDA*
X40399999Y-22150005D02*
X40000000Y-21750006D01*
X53594000Y-26208000D02*
X44457994Y-26208000D01*
X31250000Y-21000000D02*
X39249994Y-21000000D01*
X39600001Y-21350007D02*
X40000000Y-21750006D01*
X39249994Y-21000000D02*
X39600001Y-21350007D01*
X44457994Y-26208000D02*
X40399999Y-22150005D01*
G04 #@! TO.N,INT1*
X43833999Y-28893999D02*
X43434000Y-28494000D01*
X44704000Y-29764000D02*
X43833999Y-28893999D01*
X55626000Y-29764000D02*
X44704000Y-29764000D01*
G04 #@! TO.N,RESET*
X47244002Y-23922000D02*
X47244002Y-21636000D01*
X42093940Y-22190706D02*
X43825234Y-23922000D01*
X43825234Y-23922000D02*
X47244002Y-23922000D01*
X57600001Y-23799999D02*
X58000000Y-23400000D01*
X57000001Y-24399999D02*
X57600001Y-23799999D01*
X47721999Y-24399999D02*
X57000001Y-24399999D01*
X47244002Y-21636000D02*
X47244002Y-23922002D01*
X47244002Y-23922002D02*
X47721999Y-24399999D01*
G04 #@! TO.N,SCK*
X51562012Y-22651988D02*
X51562012Y-21128000D01*
X48768000Y-23668000D02*
X50546000Y-23668000D01*
X50546000Y-23668000D02*
X51562012Y-22651988D01*
G04 #@! TO.N,INT0*
X59000001Y-32399995D02*
X59400000Y-31999996D01*
X59000001Y-32399995D02*
X58200005Y-32399995D01*
X57710000Y-32890000D02*
X57710000Y-34395000D01*
X58200005Y-32399995D02*
X57710000Y-32890000D01*
X57710000Y-34395000D02*
X57710000Y-35535000D01*
X54500000Y-36200000D02*
X57710000Y-36200000D01*
X53675000Y-35375000D02*
X54500000Y-36200000D01*
X53675000Y-34800000D02*
X53675000Y-35375000D01*
X57710000Y-35535000D02*
X57710000Y-36200000D01*
X57710000Y-36200000D02*
X57710000Y-38205000D01*
G04 #@! TO.N,ZERO*
X42710000Y-35535000D02*
X42710000Y-38205000D01*
X42710000Y-34395000D02*
X42710000Y-35535000D01*
X45250010Y-31599990D02*
X46034315Y-31599990D01*
X46034315Y-31599990D02*
X46600000Y-31599990D01*
X42710000Y-34140000D02*
X45250010Y-31599990D01*
X42710000Y-34395000D02*
X42710000Y-34140000D01*
X46799990Y-31599990D02*
X46600000Y-31599990D01*
X47725000Y-34800000D02*
X47725000Y-32525000D01*
X47725000Y-32525000D02*
X46799990Y-31599990D01*
G04 #@! TD*
D18*
G04 #@! TO.N,GND*
G36*
X9989258Y-1533737D02*
X9700000Y-2232067D01*
X9700000Y-2987933D01*
X9989258Y-3686263D01*
X10523737Y-4220742D01*
X11222067Y-4510000D01*
X11977933Y-4510000D01*
X12676263Y-4220742D01*
X13210742Y-3686263D01*
X13500000Y-2987933D01*
X13500000Y-2232067D01*
X13210742Y-1533737D01*
X12939005Y-1262000D01*
X62248891Y-1262000D01*
X62727427Y-1325000D01*
X63161137Y-1504649D01*
X63533572Y-1790428D01*
X63819351Y-2162863D01*
X63999000Y-2596573D01*
X64025000Y-2794064D01*
X64025001Y-44541929D01*
X63999000Y-44739427D01*
X63819351Y-45173137D01*
X63533572Y-45545572D01*
X63161137Y-45831351D01*
X62727427Y-46011000D01*
X62621086Y-46025000D01*
X61581632Y-46025000D01*
X61925945Y-45882381D01*
X62882381Y-44925945D01*
X63400000Y-43676302D01*
X63400000Y-42323698D01*
X62882381Y-41074055D01*
X61925945Y-40117619D01*
X60676302Y-39600000D01*
X59323698Y-39600000D01*
X59000555Y-39733850D01*
X59192781Y-39446163D01*
X59203777Y-39390884D01*
X59331773Y-39518879D01*
X59515544Y-39595000D01*
X60071000Y-39595000D01*
X60196000Y-39470000D01*
X60196000Y-38259000D01*
X60304000Y-38259000D01*
X60304000Y-39470000D01*
X60429000Y-39595000D01*
X60984456Y-39595000D01*
X61168227Y-39518879D01*
X61308880Y-39378227D01*
X61385000Y-39194456D01*
X61385000Y-38384000D01*
X61260000Y-38259000D01*
X60304000Y-38259000D01*
X60196000Y-38259000D01*
X60176000Y-38259000D01*
X60176000Y-38151000D01*
X60196000Y-38151000D01*
X60196000Y-36940000D01*
X60304000Y-36940000D01*
X60304000Y-38151000D01*
X61260000Y-38151000D01*
X61385000Y-38026000D01*
X61385000Y-37215544D01*
X61308880Y-37031773D01*
X61168227Y-36891121D01*
X60984456Y-36815000D01*
X60429000Y-36815000D01*
X60304000Y-36940000D01*
X60196000Y-36940000D01*
X60071000Y-36815000D01*
X59515544Y-36815000D01*
X59331773Y-36891121D01*
X59203777Y-37019116D01*
X59192781Y-36963837D01*
X58993864Y-36666136D01*
X58735000Y-36493169D01*
X58735000Y-36300948D01*
X58755080Y-36200000D01*
X58736366Y-36105918D01*
X58993864Y-35933864D01*
X59192781Y-35636163D01*
X59203777Y-35580884D01*
X59331773Y-35708879D01*
X59515544Y-35785000D01*
X60071000Y-35785000D01*
X60196000Y-35660000D01*
X60196000Y-34449000D01*
X60304000Y-34449000D01*
X60304000Y-35660000D01*
X60429000Y-35785000D01*
X60984456Y-35785000D01*
X61168227Y-35708879D01*
X61308880Y-35568227D01*
X61385000Y-35384456D01*
X61385000Y-34574000D01*
X61260000Y-34449000D01*
X60304000Y-34449000D01*
X60196000Y-34449000D01*
X60176000Y-34449000D01*
X60176000Y-34341000D01*
X60196000Y-34341000D01*
X60196000Y-33130000D01*
X60304000Y-33130000D01*
X60304000Y-34341000D01*
X61260000Y-34341000D01*
X61385000Y-34216000D01*
X61385000Y-33405544D01*
X61308880Y-33221773D01*
X61168227Y-33081121D01*
X60984456Y-33005000D01*
X60429000Y-33005000D01*
X60304000Y-33130000D01*
X60196000Y-33130000D01*
X60152237Y-33086237D01*
X60502087Y-32736387D01*
X60700000Y-32258582D01*
X60700000Y-31741410D01*
X60502087Y-31263605D01*
X60136391Y-30897909D01*
X59658586Y-30699996D01*
X59141414Y-30699996D01*
X58663609Y-30897909D01*
X58297913Y-31263605D01*
X58255517Y-31365958D01*
X58200005Y-31354916D01*
X58099060Y-31374995D01*
X58099056Y-31374995D01*
X57800070Y-31434467D01*
X57461022Y-31661012D01*
X57403839Y-31746593D01*
X57056599Y-32093833D01*
X56971017Y-32151017D01*
X56744472Y-32490066D01*
X56709290Y-32666939D01*
X56426136Y-32856136D01*
X56227219Y-33153837D01*
X56157368Y-33505000D01*
X56157368Y-35175000D01*
X55090282Y-35175000D01*
X55117632Y-35037500D01*
X55117632Y-34562500D01*
X55029703Y-34120450D01*
X54779302Y-33745698D01*
X54404550Y-33495297D01*
X53962500Y-33407368D01*
X53387500Y-33407368D01*
X52945450Y-33495297D01*
X52570698Y-33745698D01*
X52517710Y-33825000D01*
X52104000Y-33825000D01*
X51979000Y-33950000D01*
X51979000Y-34746000D01*
X51999000Y-34746000D01*
X51999000Y-34854000D01*
X51979000Y-34854000D01*
X51979000Y-35650000D01*
X52104000Y-35775000D01*
X52517710Y-35775000D01*
X52570698Y-35854302D01*
X52917209Y-36085833D01*
X52936018Y-36113983D01*
X53021597Y-36171165D01*
X53079912Y-36229481D01*
X52665350Y-36401198D01*
X52201198Y-36865350D01*
X51950000Y-37471795D01*
X51950000Y-38128205D01*
X52201198Y-38734650D01*
X52665350Y-39198802D01*
X53271795Y-39450000D01*
X53928205Y-39450000D01*
X54534650Y-39198802D01*
X54998802Y-38734650D01*
X55250000Y-38128205D01*
X55250000Y-37471795D01*
X55147774Y-37225000D01*
X56175270Y-37225000D01*
X56157368Y-37315000D01*
X56157368Y-39095000D01*
X56227219Y-39446163D01*
X56426136Y-39743864D01*
X56723837Y-39942781D01*
X57075000Y-40012632D01*
X58327516Y-40012632D01*
X58074055Y-40117619D01*
X57117619Y-41074055D01*
X56600000Y-42323698D01*
X56600000Y-43676302D01*
X57117619Y-44925945D01*
X58074055Y-45882381D01*
X58418368Y-46025000D01*
X6581632Y-46025000D01*
X6925945Y-45882381D01*
X7882381Y-44925945D01*
X8400000Y-43676302D01*
X8400000Y-42323698D01*
X7882381Y-41074055D01*
X6925945Y-40117619D01*
X6665614Y-40009786D01*
X9043734Y-40009786D01*
X9043734Y-40390212D01*
X9119854Y-40772895D01*
X9119854Y-40772896D01*
X9120139Y-40773583D01*
X9265436Y-41124363D01*
X9265437Y-41124364D01*
X9482208Y-41448784D01*
X9482210Y-41448789D01*
X9751212Y-41717790D01*
X10075635Y-41934562D01*
X10075637Y-41934564D01*
X10259403Y-42010682D01*
X10427104Y-42080146D01*
X10427105Y-42080146D01*
X10809788Y-42156266D01*
X10809789Y-42156266D01*
X10903972Y-42175000D01*
X35096028Y-42175000D01*
X35190211Y-42156266D01*
X35190212Y-42156266D01*
X35572895Y-42080146D01*
X35572896Y-42080146D01*
X35740597Y-42010682D01*
X35924363Y-41934564D01*
X35924365Y-41934562D01*
X36248784Y-41717792D01*
X36248789Y-41717790D01*
X36517790Y-41448788D01*
X36734563Y-41124364D01*
X36734564Y-41124363D01*
X36879861Y-40773583D01*
X36880146Y-40772896D01*
X36880146Y-40772895D01*
X36956266Y-40390212D01*
X36956266Y-40009786D01*
X36880146Y-39627105D01*
X36880146Y-39627103D01*
X36777058Y-39378227D01*
X36734564Y-39275637D01*
X36734562Y-39275635D01*
X36517790Y-38951212D01*
X36248789Y-38682210D01*
X36248784Y-38682208D01*
X35924364Y-38465437D01*
X35924363Y-38465436D01*
X35718478Y-38380156D01*
X35572896Y-38319854D01*
X35572895Y-38319854D01*
X35190212Y-38243734D01*
X35190211Y-38243734D01*
X35096028Y-38225000D01*
X10903972Y-38225000D01*
X10809789Y-38243734D01*
X10809788Y-38243734D01*
X10427105Y-38319854D01*
X10427104Y-38319854D01*
X10281522Y-38380156D01*
X10075637Y-38465436D01*
X10075636Y-38465437D01*
X9751212Y-38682210D01*
X9482210Y-38951211D01*
X9482208Y-38951216D01*
X9265438Y-39275635D01*
X9265436Y-39275637D01*
X9222942Y-39378227D01*
X9119855Y-39627103D01*
X9119854Y-39627105D01*
X9043735Y-40009784D01*
X9043734Y-40009786D01*
X6665614Y-40009786D01*
X5676302Y-39600000D01*
X4323698Y-39600000D01*
X3074055Y-40117619D01*
X2117619Y-41074055D01*
X1600000Y-42323698D01*
X1600000Y-43676302D01*
X2117619Y-44925945D01*
X3074055Y-45882381D01*
X3418368Y-46025000D01*
X2148914Y-46025000D01*
X2042573Y-46011000D01*
X1608863Y-45831351D01*
X1236428Y-45545572D01*
X975000Y-45204872D01*
X975000Y-20741414D01*
X29950000Y-20741414D01*
X29950000Y-21258586D01*
X30147913Y-21736391D01*
X30513609Y-22102087D01*
X30991414Y-22300000D01*
X31508586Y-22300000D01*
X31986391Y-22102087D01*
X32063478Y-22025000D01*
X36736523Y-22025000D01*
X36697913Y-22063610D01*
X36500000Y-22541415D01*
X36500000Y-23058587D01*
X36697913Y-23536392D01*
X37063609Y-23902088D01*
X37541414Y-24100001D01*
X37650433Y-24100001D01*
X41027834Y-27477402D01*
X41085018Y-27562984D01*
X41424066Y-27789529D01*
X41723052Y-27849001D01*
X41723056Y-27849001D01*
X41824000Y-27869080D01*
X41924944Y-27849001D01*
X42294057Y-27849001D01*
X42134000Y-28235414D01*
X42134000Y-28752586D01*
X42331913Y-29230391D01*
X42697609Y-29596087D01*
X43175414Y-29794000D01*
X43284432Y-29794000D01*
X43907834Y-30417403D01*
X43965017Y-30502983D01*
X44304065Y-30729528D01*
X44603051Y-30789000D01*
X44603055Y-30789000D01*
X44615183Y-30791412D01*
X44511027Y-30861007D01*
X44453844Y-30946587D01*
X42813064Y-32587368D01*
X42075000Y-32587368D01*
X41723837Y-32657219D01*
X41426136Y-32856136D01*
X41227219Y-33153837D01*
X41157368Y-33505000D01*
X41157368Y-35285000D01*
X41227219Y-35636163D01*
X41426136Y-35933864D01*
X41685000Y-36106831D01*
X41685000Y-36493169D01*
X41426136Y-36666136D01*
X41227219Y-36963837D01*
X41157368Y-37315000D01*
X41157368Y-39095000D01*
X41227219Y-39446163D01*
X41426136Y-39743864D01*
X41723837Y-39942781D01*
X42075000Y-40012632D01*
X43345000Y-40012632D01*
X43696163Y-39942781D01*
X43993864Y-39743864D01*
X44192781Y-39446163D01*
X44203777Y-39390884D01*
X44331773Y-39518879D01*
X44515544Y-39595000D01*
X45071000Y-39595000D01*
X45196000Y-39470000D01*
X45196000Y-38259000D01*
X45304000Y-38259000D01*
X45304000Y-39470000D01*
X45429000Y-39595000D01*
X45984456Y-39595000D01*
X46168227Y-39518879D01*
X46308880Y-39378227D01*
X46385000Y-39194456D01*
X46385000Y-38384000D01*
X46260000Y-38259000D01*
X45304000Y-38259000D01*
X45196000Y-38259000D01*
X45176000Y-38259000D01*
X45176000Y-38151000D01*
X45196000Y-38151000D01*
X45196000Y-36940000D01*
X45304000Y-36940000D01*
X45304000Y-38151000D01*
X46260000Y-38151000D01*
X46385000Y-38026000D01*
X46385000Y-37471795D01*
X47070000Y-37471795D01*
X47070000Y-38128205D01*
X47321198Y-38734650D01*
X47785350Y-39198802D01*
X48391795Y-39450000D01*
X49048205Y-39450000D01*
X49654650Y-39198802D01*
X50118802Y-38734650D01*
X50370000Y-38128205D01*
X50370000Y-37471795D01*
X50118802Y-36865350D01*
X49654650Y-36401198D01*
X49048205Y-36150000D01*
X48391795Y-36150000D01*
X47785350Y-36401198D01*
X47321198Y-36865350D01*
X47070000Y-37471795D01*
X46385000Y-37471795D01*
X46385000Y-37215544D01*
X46308880Y-37031773D01*
X46168227Y-36891121D01*
X45984456Y-36815000D01*
X45429000Y-36815000D01*
X45304000Y-36940000D01*
X45196000Y-36940000D01*
X45071000Y-36815000D01*
X44515544Y-36815000D01*
X44331773Y-36891121D01*
X44203777Y-37019116D01*
X44192781Y-36963837D01*
X43993864Y-36666136D01*
X43735000Y-36493169D01*
X43735000Y-36106831D01*
X43993864Y-35933864D01*
X44192781Y-35636163D01*
X44203777Y-35580884D01*
X44331773Y-35708879D01*
X44515544Y-35785000D01*
X45071000Y-35785000D01*
X45196000Y-35660000D01*
X45196000Y-34449000D01*
X45176000Y-34449000D01*
X45176000Y-34341000D01*
X45196000Y-34341000D01*
X45196000Y-34321000D01*
X45304000Y-34321000D01*
X45304000Y-34341000D01*
X45324000Y-34341000D01*
X45324000Y-34449000D01*
X45304000Y-34449000D01*
X45304000Y-35660000D01*
X45429000Y-35785000D01*
X45984456Y-35785000D01*
X46168227Y-35708879D01*
X46308880Y-35568227D01*
X46362288Y-35439287D01*
X46370297Y-35479550D01*
X46620698Y-35854302D01*
X46995450Y-36104703D01*
X47437500Y-36192632D01*
X48012500Y-36192632D01*
X48454550Y-36104703D01*
X48829302Y-35854302D01*
X48882290Y-35775000D01*
X49296000Y-35775000D01*
X49421000Y-35650000D01*
X49421000Y-34854000D01*
X49529000Y-34854000D01*
X49529000Y-35650000D01*
X49654000Y-35775000D01*
X50099456Y-35775000D01*
X50283227Y-35698880D01*
X50423879Y-35558227D01*
X50500000Y-35374456D01*
X50500000Y-34979000D01*
X50900000Y-34979000D01*
X50900000Y-35374456D01*
X50976121Y-35558227D01*
X51116773Y-35698880D01*
X51300544Y-35775000D01*
X51746000Y-35775000D01*
X51871000Y-35650000D01*
X51871000Y-34854000D01*
X51025000Y-34854000D01*
X50900000Y-34979000D01*
X50500000Y-34979000D01*
X50375000Y-34854000D01*
X49529000Y-34854000D01*
X49421000Y-34854000D01*
X49401000Y-34854000D01*
X49401000Y-34746000D01*
X49421000Y-34746000D01*
X49421000Y-33950000D01*
X49529000Y-33950000D01*
X49529000Y-34746000D01*
X50375000Y-34746000D01*
X50500000Y-34621000D01*
X50500000Y-34225544D01*
X50900000Y-34225544D01*
X50900000Y-34621000D01*
X51025000Y-34746000D01*
X51871000Y-34746000D01*
X51871000Y-33950000D01*
X51746000Y-33825000D01*
X51300544Y-33825000D01*
X51116773Y-33901120D01*
X50976121Y-34041773D01*
X50900000Y-34225544D01*
X50500000Y-34225544D01*
X50423879Y-34041773D01*
X50283227Y-33901120D01*
X50099456Y-33825000D01*
X49654000Y-33825000D01*
X49529000Y-33950000D01*
X49421000Y-33950000D01*
X49296000Y-33825000D01*
X48882290Y-33825000D01*
X48829302Y-33745698D01*
X48750000Y-33692710D01*
X48750000Y-32625949D01*
X48770080Y-32525000D01*
X48690528Y-32125065D01*
X48521166Y-31871597D01*
X48521165Y-31871596D01*
X48463983Y-31786017D01*
X48378403Y-31728834D01*
X47835673Y-31186105D01*
X47702087Y-30863599D01*
X47627488Y-30789000D01*
X54812522Y-30789000D01*
X54889609Y-30866087D01*
X55367414Y-31064000D01*
X55884586Y-31064000D01*
X56362391Y-30866087D01*
X56728087Y-30500391D01*
X56926000Y-30022586D01*
X56926000Y-29505414D01*
X56728087Y-29027609D01*
X56362391Y-28661913D01*
X56070198Y-28540883D01*
X56154177Y-28415199D01*
X56218000Y-28094339D01*
X56239550Y-27986000D01*
X56218000Y-27877661D01*
X56218000Y-26366338D01*
X56239550Y-26257999D01*
X56154177Y-25828800D01*
X56120850Y-25778922D01*
X55911056Y-25464943D01*
X55851275Y-25424999D01*
X56899056Y-25424999D01*
X57000001Y-25445078D01*
X57100946Y-25424999D01*
X57100950Y-25424999D01*
X57399936Y-25365527D01*
X57738984Y-25138982D01*
X57796168Y-25053400D01*
X58149568Y-24700000D01*
X58258586Y-24700000D01*
X58736391Y-24502087D01*
X59102087Y-24136391D01*
X59300000Y-23658586D01*
X59300000Y-23141414D01*
X59102087Y-22663609D01*
X58736391Y-22297913D01*
X58258586Y-22100000D01*
X57741414Y-22100000D01*
X57263609Y-22297913D01*
X56897913Y-22663609D01*
X56700000Y-23141414D01*
X56700000Y-23250432D01*
X56575433Y-23374999D01*
X52311667Y-23374999D01*
X52382764Y-23268596D01*
X52527540Y-23051923D01*
X52548575Y-22946171D01*
X52587012Y-22752937D01*
X52587012Y-22752933D01*
X52607091Y-22651988D01*
X52587012Y-22551043D01*
X52587012Y-21941478D01*
X52664099Y-21864391D01*
X52862012Y-21386586D01*
X52862012Y-21100317D01*
X52981958Y-21150000D01*
X53698042Y-21150000D01*
X54359618Y-20875966D01*
X54610000Y-20625584D01*
X54860382Y-20875966D01*
X55521958Y-21150000D01*
X56238042Y-21150000D01*
X56899618Y-20875966D01*
X57405966Y-20369618D01*
X57680000Y-19708042D01*
X57680000Y-18991958D01*
X57405966Y-18330382D01*
X56899618Y-17824034D01*
X56759719Y-17766086D01*
X55880000Y-16886368D01*
X55000281Y-17766086D01*
X54860382Y-17824034D01*
X54610000Y-18074416D01*
X54359618Y-17824034D01*
X54219719Y-17766086D01*
X53340000Y-16886368D01*
X52460281Y-17766086D01*
X52320382Y-17824034D01*
X52070000Y-18074416D01*
X51819618Y-17824034D01*
X51679719Y-17766086D01*
X50800000Y-16886368D01*
X49920281Y-17766086D01*
X49780382Y-17824034D01*
X49530000Y-18074416D01*
X49341462Y-17885878D01*
X49376855Y-17850484D01*
X49290503Y-17764132D01*
X49528269Y-17664703D01*
X49583624Y-17532545D01*
X49612003Y-17601337D01*
X49614273Y-17604734D01*
X49841653Y-17691980D01*
X50723632Y-16810000D01*
X50876368Y-16810000D01*
X51758347Y-17691980D01*
X51985727Y-17604734D01*
X52069905Y-17402329D01*
X52152003Y-17601337D01*
X52154273Y-17604734D01*
X52381653Y-17691980D01*
X53263632Y-16810000D01*
X53416368Y-16810000D01*
X54298347Y-17691980D01*
X54525727Y-17604734D01*
X54609905Y-17402329D01*
X54692003Y-17601337D01*
X54694273Y-17604734D01*
X54921653Y-17691980D01*
X55803632Y-16810000D01*
X55956368Y-16810000D01*
X56838347Y-17691980D01*
X57065727Y-17604734D01*
X57279600Y-17090480D01*
X57280397Y-16533527D01*
X57067997Y-16018663D01*
X57065727Y-16015266D01*
X56838347Y-15928020D01*
X55956368Y-16810000D01*
X55803632Y-16810000D01*
X54921653Y-15928020D01*
X54694273Y-16015266D01*
X54610095Y-16217671D01*
X54527997Y-16018663D01*
X54525727Y-16015266D01*
X54298347Y-15928020D01*
X53416368Y-16810000D01*
X53263632Y-16810000D01*
X52381653Y-15928020D01*
X52154273Y-16015266D01*
X52070095Y-16217671D01*
X51987997Y-16018663D01*
X51985727Y-16015266D01*
X51758347Y-15928020D01*
X50876368Y-16810000D01*
X50723632Y-16810000D01*
X49841653Y-15928020D01*
X49614273Y-16015266D01*
X49584628Y-16086547D01*
X49534988Y-15965353D01*
X49528269Y-15955297D01*
X49290501Y-15855867D01*
X48336368Y-16810000D01*
X48350510Y-16824142D01*
X48274142Y-16900510D01*
X48260000Y-16886368D01*
X48245858Y-16900510D01*
X48169490Y-16824142D01*
X48183632Y-16810000D01*
X48169490Y-16795858D01*
X48245858Y-16719490D01*
X48260000Y-16733632D01*
X49141979Y-15851653D01*
X49918020Y-15851653D01*
X50800000Y-16733632D01*
X51681980Y-15851653D01*
X52458020Y-15851653D01*
X53340000Y-16733632D01*
X54221980Y-15851653D01*
X54998020Y-15851653D01*
X55880000Y-16733632D01*
X56761980Y-15851653D01*
X56674734Y-15624273D01*
X56160480Y-15410400D01*
X55603527Y-15409603D01*
X55088663Y-15622003D01*
X55085266Y-15624273D01*
X54998020Y-15851653D01*
X54221980Y-15851653D01*
X54134734Y-15624273D01*
X53620480Y-15410400D01*
X53063527Y-15409603D01*
X52548663Y-15622003D01*
X52545266Y-15624273D01*
X52458020Y-15851653D01*
X51681980Y-15851653D01*
X51594734Y-15624273D01*
X51080480Y-15410400D01*
X50523527Y-15409603D01*
X50008663Y-15622003D01*
X50005266Y-15624273D01*
X49918020Y-15851653D01*
X49141979Y-15851653D01*
X49214133Y-15779499D01*
X49114703Y-15541731D01*
X48564297Y-15311192D01*
X47967565Y-15308832D01*
X47415353Y-15535012D01*
X47405297Y-15541731D01*
X47305868Y-15779497D01*
X47219516Y-15693145D01*
X47184123Y-15728539D01*
X46739618Y-15284034D01*
X46078042Y-15010000D01*
X45361958Y-15010000D01*
X44700382Y-15284034D01*
X44194034Y-15790382D01*
X43920000Y-16451958D01*
X43920000Y-17168042D01*
X44194034Y-17829618D01*
X44215346Y-17850930D01*
X43910279Y-18307496D01*
X43802368Y-18850000D01*
X43802368Y-19850000D01*
X43910279Y-20392504D01*
X44217583Y-20852417D01*
X44677496Y-21159721D01*
X45220000Y-21267632D01*
X45989475Y-21267632D01*
X45944002Y-21377414D01*
X45944002Y-21894586D01*
X46141915Y-22372391D01*
X46219002Y-22449478D01*
X46219002Y-22897000D01*
X44249803Y-22897000D01*
X43393940Y-22041138D01*
X43393940Y-21932120D01*
X43196027Y-21454315D01*
X42830331Y-21088619D01*
X42352526Y-20890706D01*
X41835354Y-20890706D01*
X41357549Y-21088619D01*
X41198878Y-21247290D01*
X41102087Y-21013615D01*
X40736391Y-20647919D01*
X40258586Y-20450006D01*
X40149568Y-20450006D01*
X40046161Y-20346599D01*
X39988977Y-20261017D01*
X39649929Y-20034472D01*
X39350943Y-19975000D01*
X39350939Y-19975000D01*
X39249994Y-19954921D01*
X39149049Y-19975000D01*
X32063478Y-19975000D01*
X31986391Y-19897913D01*
X31508586Y-19700000D01*
X30991414Y-19700000D01*
X30513609Y-19897913D01*
X30147913Y-20263609D01*
X29950000Y-20741414D01*
X975000Y-20741414D01*
X975000Y-4323698D01*
X1600000Y-4323698D01*
X1600000Y-5676302D01*
X2117619Y-6925945D01*
X3074055Y-7882381D01*
X4323698Y-8400000D01*
X5676302Y-8400000D01*
X6925945Y-7882381D01*
X7266259Y-7542067D01*
X9700000Y-7542067D01*
X9700000Y-8297933D01*
X9989258Y-8996263D01*
X10523737Y-9530742D01*
X11222067Y-9820000D01*
X11977933Y-9820000D01*
X12676263Y-9530742D01*
X13210742Y-8996263D01*
X13229697Y-8950501D01*
X59745867Y-8950501D01*
X59845297Y-9188269D01*
X60395703Y-9418808D01*
X60992435Y-9421168D01*
X61544647Y-9194988D01*
X61554703Y-9188269D01*
X61654133Y-8950501D01*
X60700000Y-7996368D01*
X59745867Y-8950501D01*
X13229697Y-8950501D01*
X13500000Y-8297933D01*
X13500000Y-8212435D01*
X59198832Y-8212435D01*
X59425012Y-8764647D01*
X59431731Y-8774703D01*
X59669499Y-8874133D01*
X60623632Y-7920000D01*
X60776368Y-7920000D01*
X61730501Y-8874133D01*
X61968269Y-8774703D01*
X62198808Y-8224297D01*
X62201168Y-7627565D01*
X61974988Y-7075353D01*
X61968269Y-7065297D01*
X61730501Y-6965867D01*
X60776368Y-7920000D01*
X60623632Y-7920000D01*
X59669499Y-6965867D01*
X59431731Y-7065297D01*
X59201192Y-7615703D01*
X59198832Y-8212435D01*
X13500000Y-8212435D01*
X13500000Y-7542067D01*
X13229698Y-6889499D01*
X59745867Y-6889499D01*
X60700000Y-7843632D01*
X61654133Y-6889499D01*
X61554703Y-6651731D01*
X61004297Y-6421192D01*
X60407565Y-6418832D01*
X59855353Y-6645012D01*
X59845297Y-6651731D01*
X59745867Y-6889499D01*
X13229698Y-6889499D01*
X13210742Y-6843737D01*
X12676263Y-6309258D01*
X11977933Y-6020000D01*
X11222067Y-6020000D01*
X10523737Y-6309258D01*
X9989258Y-6843737D01*
X9700000Y-7542067D01*
X7266259Y-7542067D01*
X7882381Y-6925945D01*
X8400000Y-5676302D01*
X8400000Y-4323698D01*
X7882381Y-3074055D01*
X6925945Y-2117619D01*
X5676302Y-1600000D01*
X4323698Y-1600000D01*
X3074055Y-2117619D01*
X2117619Y-3074055D01*
X1600000Y-4323698D01*
X975000Y-4323698D01*
X975000Y-2131128D01*
X1236428Y-1790428D01*
X1608863Y-1504649D01*
X2042573Y-1325000D01*
X2521109Y-1262000D01*
X10260995Y-1262000D01*
X9989258Y-1533737D01*
X9989258Y-1533737D01*
G37*
X9989258Y-1533737D02*
X9700000Y-2232067D01*
X9700000Y-2987933D01*
X9989258Y-3686263D01*
X10523737Y-4220742D01*
X11222067Y-4510000D01*
X11977933Y-4510000D01*
X12676263Y-4220742D01*
X13210742Y-3686263D01*
X13500000Y-2987933D01*
X13500000Y-2232067D01*
X13210742Y-1533737D01*
X12939005Y-1262000D01*
X62248891Y-1262000D01*
X62727427Y-1325000D01*
X63161137Y-1504649D01*
X63533572Y-1790428D01*
X63819351Y-2162863D01*
X63999000Y-2596573D01*
X64025000Y-2794064D01*
X64025001Y-44541929D01*
X63999000Y-44739427D01*
X63819351Y-45173137D01*
X63533572Y-45545572D01*
X63161137Y-45831351D01*
X62727427Y-46011000D01*
X62621086Y-46025000D01*
X61581632Y-46025000D01*
X61925945Y-45882381D01*
X62882381Y-44925945D01*
X63400000Y-43676302D01*
X63400000Y-42323698D01*
X62882381Y-41074055D01*
X61925945Y-40117619D01*
X60676302Y-39600000D01*
X59323698Y-39600000D01*
X59000555Y-39733850D01*
X59192781Y-39446163D01*
X59203777Y-39390884D01*
X59331773Y-39518879D01*
X59515544Y-39595000D01*
X60071000Y-39595000D01*
X60196000Y-39470000D01*
X60196000Y-38259000D01*
X60304000Y-38259000D01*
X60304000Y-39470000D01*
X60429000Y-39595000D01*
X60984456Y-39595000D01*
X61168227Y-39518879D01*
X61308880Y-39378227D01*
X61385000Y-39194456D01*
X61385000Y-38384000D01*
X61260000Y-38259000D01*
X60304000Y-38259000D01*
X60196000Y-38259000D01*
X60176000Y-38259000D01*
X60176000Y-38151000D01*
X60196000Y-38151000D01*
X60196000Y-36940000D01*
X60304000Y-36940000D01*
X60304000Y-38151000D01*
X61260000Y-38151000D01*
X61385000Y-38026000D01*
X61385000Y-37215544D01*
X61308880Y-37031773D01*
X61168227Y-36891121D01*
X60984456Y-36815000D01*
X60429000Y-36815000D01*
X60304000Y-36940000D01*
X60196000Y-36940000D01*
X60071000Y-36815000D01*
X59515544Y-36815000D01*
X59331773Y-36891121D01*
X59203777Y-37019116D01*
X59192781Y-36963837D01*
X58993864Y-36666136D01*
X58735000Y-36493169D01*
X58735000Y-36300948D01*
X58755080Y-36200000D01*
X58736366Y-36105918D01*
X58993864Y-35933864D01*
X59192781Y-35636163D01*
X59203777Y-35580884D01*
X59331773Y-35708879D01*
X59515544Y-35785000D01*
X60071000Y-35785000D01*
X60196000Y-35660000D01*
X60196000Y-34449000D01*
X60304000Y-34449000D01*
X60304000Y-35660000D01*
X60429000Y-35785000D01*
X60984456Y-35785000D01*
X61168227Y-35708879D01*
X61308880Y-35568227D01*
X61385000Y-35384456D01*
X61385000Y-34574000D01*
X61260000Y-34449000D01*
X60304000Y-34449000D01*
X60196000Y-34449000D01*
X60176000Y-34449000D01*
X60176000Y-34341000D01*
X60196000Y-34341000D01*
X60196000Y-33130000D01*
X60304000Y-33130000D01*
X60304000Y-34341000D01*
X61260000Y-34341000D01*
X61385000Y-34216000D01*
X61385000Y-33405544D01*
X61308880Y-33221773D01*
X61168227Y-33081121D01*
X60984456Y-33005000D01*
X60429000Y-33005000D01*
X60304000Y-33130000D01*
X60196000Y-33130000D01*
X60152237Y-33086237D01*
X60502087Y-32736387D01*
X60700000Y-32258582D01*
X60700000Y-31741410D01*
X60502087Y-31263605D01*
X60136391Y-30897909D01*
X59658586Y-30699996D01*
X59141414Y-30699996D01*
X58663609Y-30897909D01*
X58297913Y-31263605D01*
X58255517Y-31365958D01*
X58200005Y-31354916D01*
X58099060Y-31374995D01*
X58099056Y-31374995D01*
X57800070Y-31434467D01*
X57461022Y-31661012D01*
X57403839Y-31746593D01*
X57056599Y-32093833D01*
X56971017Y-32151017D01*
X56744472Y-32490066D01*
X56709290Y-32666939D01*
X56426136Y-32856136D01*
X56227219Y-33153837D01*
X56157368Y-33505000D01*
X56157368Y-35175000D01*
X55090282Y-35175000D01*
X55117632Y-35037500D01*
X55117632Y-34562500D01*
X55029703Y-34120450D01*
X54779302Y-33745698D01*
X54404550Y-33495297D01*
X53962500Y-33407368D01*
X53387500Y-33407368D01*
X52945450Y-33495297D01*
X52570698Y-33745698D01*
X52517710Y-33825000D01*
X52104000Y-33825000D01*
X51979000Y-33950000D01*
X51979000Y-34746000D01*
X51999000Y-34746000D01*
X51999000Y-34854000D01*
X51979000Y-34854000D01*
X51979000Y-35650000D01*
X52104000Y-35775000D01*
X52517710Y-35775000D01*
X52570698Y-35854302D01*
X52917209Y-36085833D01*
X52936018Y-36113983D01*
X53021597Y-36171165D01*
X53079912Y-36229481D01*
X52665350Y-36401198D01*
X52201198Y-36865350D01*
X51950000Y-37471795D01*
X51950000Y-38128205D01*
X52201198Y-38734650D01*
X52665350Y-39198802D01*
X53271795Y-39450000D01*
X53928205Y-39450000D01*
X54534650Y-39198802D01*
X54998802Y-38734650D01*
X55250000Y-38128205D01*
X55250000Y-37471795D01*
X55147774Y-37225000D01*
X56175270Y-37225000D01*
X56157368Y-37315000D01*
X56157368Y-39095000D01*
X56227219Y-39446163D01*
X56426136Y-39743864D01*
X56723837Y-39942781D01*
X57075000Y-40012632D01*
X58327516Y-40012632D01*
X58074055Y-40117619D01*
X57117619Y-41074055D01*
X56600000Y-42323698D01*
X56600000Y-43676302D01*
X57117619Y-44925945D01*
X58074055Y-45882381D01*
X58418368Y-46025000D01*
X6581632Y-46025000D01*
X6925945Y-45882381D01*
X7882381Y-44925945D01*
X8400000Y-43676302D01*
X8400000Y-42323698D01*
X7882381Y-41074055D01*
X6925945Y-40117619D01*
X6665614Y-40009786D01*
X9043734Y-40009786D01*
X9043734Y-40390212D01*
X9119854Y-40772895D01*
X9119854Y-40772896D01*
X9120139Y-40773583D01*
X9265436Y-41124363D01*
X9265437Y-41124364D01*
X9482208Y-41448784D01*
X9482210Y-41448789D01*
X9751212Y-41717790D01*
X10075635Y-41934562D01*
X10075637Y-41934564D01*
X10259403Y-42010682D01*
X10427104Y-42080146D01*
X10427105Y-42080146D01*
X10809788Y-42156266D01*
X10809789Y-42156266D01*
X10903972Y-42175000D01*
X35096028Y-42175000D01*
X35190211Y-42156266D01*
X35190212Y-42156266D01*
X35572895Y-42080146D01*
X35572896Y-42080146D01*
X35740597Y-42010682D01*
X35924363Y-41934564D01*
X35924365Y-41934562D01*
X36248784Y-41717792D01*
X36248789Y-41717790D01*
X36517790Y-41448788D01*
X36734563Y-41124364D01*
X36734564Y-41124363D01*
X36879861Y-40773583D01*
X36880146Y-40772896D01*
X36880146Y-40772895D01*
X36956266Y-40390212D01*
X36956266Y-40009786D01*
X36880146Y-39627105D01*
X36880146Y-39627103D01*
X36777058Y-39378227D01*
X36734564Y-39275637D01*
X36734562Y-39275635D01*
X36517790Y-38951212D01*
X36248789Y-38682210D01*
X36248784Y-38682208D01*
X35924364Y-38465437D01*
X35924363Y-38465436D01*
X35718478Y-38380156D01*
X35572896Y-38319854D01*
X35572895Y-38319854D01*
X35190212Y-38243734D01*
X35190211Y-38243734D01*
X35096028Y-38225000D01*
X10903972Y-38225000D01*
X10809789Y-38243734D01*
X10809788Y-38243734D01*
X10427105Y-38319854D01*
X10427104Y-38319854D01*
X10281522Y-38380156D01*
X10075637Y-38465436D01*
X10075636Y-38465437D01*
X9751212Y-38682210D01*
X9482210Y-38951211D01*
X9482208Y-38951216D01*
X9265438Y-39275635D01*
X9265436Y-39275637D01*
X9222942Y-39378227D01*
X9119855Y-39627103D01*
X9119854Y-39627105D01*
X9043735Y-40009784D01*
X9043734Y-40009786D01*
X6665614Y-40009786D01*
X5676302Y-39600000D01*
X4323698Y-39600000D01*
X3074055Y-40117619D01*
X2117619Y-41074055D01*
X1600000Y-42323698D01*
X1600000Y-43676302D01*
X2117619Y-44925945D01*
X3074055Y-45882381D01*
X3418368Y-46025000D01*
X2148914Y-46025000D01*
X2042573Y-46011000D01*
X1608863Y-45831351D01*
X1236428Y-45545572D01*
X975000Y-45204872D01*
X975000Y-20741414D01*
X29950000Y-20741414D01*
X29950000Y-21258586D01*
X30147913Y-21736391D01*
X30513609Y-22102087D01*
X30991414Y-22300000D01*
X31508586Y-22300000D01*
X31986391Y-22102087D01*
X32063478Y-22025000D01*
X36736523Y-22025000D01*
X36697913Y-22063610D01*
X36500000Y-22541415D01*
X36500000Y-23058587D01*
X36697913Y-23536392D01*
X37063609Y-23902088D01*
X37541414Y-24100001D01*
X37650433Y-24100001D01*
X41027834Y-27477402D01*
X41085018Y-27562984D01*
X41424066Y-27789529D01*
X41723052Y-27849001D01*
X41723056Y-27849001D01*
X41824000Y-27869080D01*
X41924944Y-27849001D01*
X42294057Y-27849001D01*
X42134000Y-28235414D01*
X42134000Y-28752586D01*
X42331913Y-29230391D01*
X42697609Y-29596087D01*
X43175414Y-29794000D01*
X43284432Y-29794000D01*
X43907834Y-30417403D01*
X43965017Y-30502983D01*
X44304065Y-30729528D01*
X44603051Y-30789000D01*
X44603055Y-30789000D01*
X44615183Y-30791412D01*
X44511027Y-30861007D01*
X44453844Y-30946587D01*
X42813064Y-32587368D01*
X42075000Y-32587368D01*
X41723837Y-32657219D01*
X41426136Y-32856136D01*
X41227219Y-33153837D01*
X41157368Y-33505000D01*
X41157368Y-35285000D01*
X41227219Y-35636163D01*
X41426136Y-35933864D01*
X41685000Y-36106831D01*
X41685000Y-36493169D01*
X41426136Y-36666136D01*
X41227219Y-36963837D01*
X41157368Y-37315000D01*
X41157368Y-39095000D01*
X41227219Y-39446163D01*
X41426136Y-39743864D01*
X41723837Y-39942781D01*
X42075000Y-40012632D01*
X43345000Y-40012632D01*
X43696163Y-39942781D01*
X43993864Y-39743864D01*
X44192781Y-39446163D01*
X44203777Y-39390884D01*
X44331773Y-39518879D01*
X44515544Y-39595000D01*
X45071000Y-39595000D01*
X45196000Y-39470000D01*
X45196000Y-38259000D01*
X45304000Y-38259000D01*
X45304000Y-39470000D01*
X45429000Y-39595000D01*
X45984456Y-39595000D01*
X46168227Y-39518879D01*
X46308880Y-39378227D01*
X46385000Y-39194456D01*
X46385000Y-38384000D01*
X46260000Y-38259000D01*
X45304000Y-38259000D01*
X45196000Y-38259000D01*
X45176000Y-38259000D01*
X45176000Y-38151000D01*
X45196000Y-38151000D01*
X45196000Y-36940000D01*
X45304000Y-36940000D01*
X45304000Y-38151000D01*
X46260000Y-38151000D01*
X46385000Y-38026000D01*
X46385000Y-37471795D01*
X47070000Y-37471795D01*
X47070000Y-38128205D01*
X47321198Y-38734650D01*
X47785350Y-39198802D01*
X48391795Y-39450000D01*
X49048205Y-39450000D01*
X49654650Y-39198802D01*
X50118802Y-38734650D01*
X50370000Y-38128205D01*
X50370000Y-37471795D01*
X50118802Y-36865350D01*
X49654650Y-36401198D01*
X49048205Y-36150000D01*
X48391795Y-36150000D01*
X47785350Y-36401198D01*
X47321198Y-36865350D01*
X47070000Y-37471795D01*
X46385000Y-37471795D01*
X46385000Y-37215544D01*
X46308880Y-37031773D01*
X46168227Y-36891121D01*
X45984456Y-36815000D01*
X45429000Y-36815000D01*
X45304000Y-36940000D01*
X45196000Y-36940000D01*
X45071000Y-36815000D01*
X44515544Y-36815000D01*
X44331773Y-36891121D01*
X44203777Y-37019116D01*
X44192781Y-36963837D01*
X43993864Y-36666136D01*
X43735000Y-36493169D01*
X43735000Y-36106831D01*
X43993864Y-35933864D01*
X44192781Y-35636163D01*
X44203777Y-35580884D01*
X44331773Y-35708879D01*
X44515544Y-35785000D01*
X45071000Y-35785000D01*
X45196000Y-35660000D01*
X45196000Y-34449000D01*
X45176000Y-34449000D01*
X45176000Y-34341000D01*
X45196000Y-34341000D01*
X45196000Y-34321000D01*
X45304000Y-34321000D01*
X45304000Y-34341000D01*
X45324000Y-34341000D01*
X45324000Y-34449000D01*
X45304000Y-34449000D01*
X45304000Y-35660000D01*
X45429000Y-35785000D01*
X45984456Y-35785000D01*
X46168227Y-35708879D01*
X46308880Y-35568227D01*
X46362288Y-35439287D01*
X46370297Y-35479550D01*
X46620698Y-35854302D01*
X46995450Y-36104703D01*
X47437500Y-36192632D01*
X48012500Y-36192632D01*
X48454550Y-36104703D01*
X48829302Y-35854302D01*
X48882290Y-35775000D01*
X49296000Y-35775000D01*
X49421000Y-35650000D01*
X49421000Y-34854000D01*
X49529000Y-34854000D01*
X49529000Y-35650000D01*
X49654000Y-35775000D01*
X50099456Y-35775000D01*
X50283227Y-35698880D01*
X50423879Y-35558227D01*
X50500000Y-35374456D01*
X50500000Y-34979000D01*
X50900000Y-34979000D01*
X50900000Y-35374456D01*
X50976121Y-35558227D01*
X51116773Y-35698880D01*
X51300544Y-35775000D01*
X51746000Y-35775000D01*
X51871000Y-35650000D01*
X51871000Y-34854000D01*
X51025000Y-34854000D01*
X50900000Y-34979000D01*
X50500000Y-34979000D01*
X50375000Y-34854000D01*
X49529000Y-34854000D01*
X49421000Y-34854000D01*
X49401000Y-34854000D01*
X49401000Y-34746000D01*
X49421000Y-34746000D01*
X49421000Y-33950000D01*
X49529000Y-33950000D01*
X49529000Y-34746000D01*
X50375000Y-34746000D01*
X50500000Y-34621000D01*
X50500000Y-34225544D01*
X50900000Y-34225544D01*
X50900000Y-34621000D01*
X51025000Y-34746000D01*
X51871000Y-34746000D01*
X51871000Y-33950000D01*
X51746000Y-33825000D01*
X51300544Y-33825000D01*
X51116773Y-33901120D01*
X50976121Y-34041773D01*
X50900000Y-34225544D01*
X50500000Y-34225544D01*
X50423879Y-34041773D01*
X50283227Y-33901120D01*
X50099456Y-33825000D01*
X49654000Y-33825000D01*
X49529000Y-33950000D01*
X49421000Y-33950000D01*
X49296000Y-33825000D01*
X48882290Y-33825000D01*
X48829302Y-33745698D01*
X48750000Y-33692710D01*
X48750000Y-32625949D01*
X48770080Y-32525000D01*
X48690528Y-32125065D01*
X48521166Y-31871597D01*
X48521165Y-31871596D01*
X48463983Y-31786017D01*
X48378403Y-31728834D01*
X47835673Y-31186105D01*
X47702087Y-30863599D01*
X47627488Y-30789000D01*
X54812522Y-30789000D01*
X54889609Y-30866087D01*
X55367414Y-31064000D01*
X55884586Y-31064000D01*
X56362391Y-30866087D01*
X56728087Y-30500391D01*
X56926000Y-30022586D01*
X56926000Y-29505414D01*
X56728087Y-29027609D01*
X56362391Y-28661913D01*
X56070198Y-28540883D01*
X56154177Y-28415199D01*
X56218000Y-28094339D01*
X56239550Y-27986000D01*
X56218000Y-27877661D01*
X56218000Y-26366338D01*
X56239550Y-26257999D01*
X56154177Y-25828800D01*
X56120850Y-25778922D01*
X55911056Y-25464943D01*
X55851275Y-25424999D01*
X56899056Y-25424999D01*
X57000001Y-25445078D01*
X57100946Y-25424999D01*
X57100950Y-25424999D01*
X57399936Y-25365527D01*
X57738984Y-25138982D01*
X57796168Y-25053400D01*
X58149568Y-24700000D01*
X58258586Y-24700000D01*
X58736391Y-24502087D01*
X59102087Y-24136391D01*
X59300000Y-23658586D01*
X59300000Y-23141414D01*
X59102087Y-22663609D01*
X58736391Y-22297913D01*
X58258586Y-22100000D01*
X57741414Y-22100000D01*
X57263609Y-22297913D01*
X56897913Y-22663609D01*
X56700000Y-23141414D01*
X56700000Y-23250432D01*
X56575433Y-23374999D01*
X52311667Y-23374999D01*
X52382764Y-23268596D01*
X52527540Y-23051923D01*
X52548575Y-22946171D01*
X52587012Y-22752937D01*
X52587012Y-22752933D01*
X52607091Y-22651988D01*
X52587012Y-22551043D01*
X52587012Y-21941478D01*
X52664099Y-21864391D01*
X52862012Y-21386586D01*
X52862012Y-21100317D01*
X52981958Y-21150000D01*
X53698042Y-21150000D01*
X54359618Y-20875966D01*
X54610000Y-20625584D01*
X54860382Y-20875966D01*
X55521958Y-21150000D01*
X56238042Y-21150000D01*
X56899618Y-20875966D01*
X57405966Y-20369618D01*
X57680000Y-19708042D01*
X57680000Y-18991958D01*
X57405966Y-18330382D01*
X56899618Y-17824034D01*
X56759719Y-17766086D01*
X55880000Y-16886368D01*
X55000281Y-17766086D01*
X54860382Y-17824034D01*
X54610000Y-18074416D01*
X54359618Y-17824034D01*
X54219719Y-17766086D01*
X53340000Y-16886368D01*
X52460281Y-17766086D01*
X52320382Y-17824034D01*
X52070000Y-18074416D01*
X51819618Y-17824034D01*
X51679719Y-17766086D01*
X50800000Y-16886368D01*
X49920281Y-17766086D01*
X49780382Y-17824034D01*
X49530000Y-18074416D01*
X49341462Y-17885878D01*
X49376855Y-17850484D01*
X49290503Y-17764132D01*
X49528269Y-17664703D01*
X49583624Y-17532545D01*
X49612003Y-17601337D01*
X49614273Y-17604734D01*
X49841653Y-17691980D01*
X50723632Y-16810000D01*
X50876368Y-16810000D01*
X51758347Y-17691980D01*
X51985727Y-17604734D01*
X52069905Y-17402329D01*
X52152003Y-17601337D01*
X52154273Y-17604734D01*
X52381653Y-17691980D01*
X53263632Y-16810000D01*
X53416368Y-16810000D01*
X54298347Y-17691980D01*
X54525727Y-17604734D01*
X54609905Y-17402329D01*
X54692003Y-17601337D01*
X54694273Y-17604734D01*
X54921653Y-17691980D01*
X55803632Y-16810000D01*
X55956368Y-16810000D01*
X56838347Y-17691980D01*
X57065727Y-17604734D01*
X57279600Y-17090480D01*
X57280397Y-16533527D01*
X57067997Y-16018663D01*
X57065727Y-16015266D01*
X56838347Y-15928020D01*
X55956368Y-16810000D01*
X55803632Y-16810000D01*
X54921653Y-15928020D01*
X54694273Y-16015266D01*
X54610095Y-16217671D01*
X54527997Y-16018663D01*
X54525727Y-16015266D01*
X54298347Y-15928020D01*
X53416368Y-16810000D01*
X53263632Y-16810000D01*
X52381653Y-15928020D01*
X52154273Y-16015266D01*
X52070095Y-16217671D01*
X51987997Y-16018663D01*
X51985727Y-16015266D01*
X51758347Y-15928020D01*
X50876368Y-16810000D01*
X50723632Y-16810000D01*
X49841653Y-15928020D01*
X49614273Y-16015266D01*
X49584628Y-16086547D01*
X49534988Y-15965353D01*
X49528269Y-15955297D01*
X49290501Y-15855867D01*
X48336368Y-16810000D01*
X48350510Y-16824142D01*
X48274142Y-16900510D01*
X48260000Y-16886368D01*
X48245858Y-16900510D01*
X48169490Y-16824142D01*
X48183632Y-16810000D01*
X48169490Y-16795858D01*
X48245858Y-16719490D01*
X48260000Y-16733632D01*
X49141979Y-15851653D01*
X49918020Y-15851653D01*
X50800000Y-16733632D01*
X51681980Y-15851653D01*
X52458020Y-15851653D01*
X53340000Y-16733632D01*
X54221980Y-15851653D01*
X54998020Y-15851653D01*
X55880000Y-16733632D01*
X56761980Y-15851653D01*
X56674734Y-15624273D01*
X56160480Y-15410400D01*
X55603527Y-15409603D01*
X55088663Y-15622003D01*
X55085266Y-15624273D01*
X54998020Y-15851653D01*
X54221980Y-15851653D01*
X54134734Y-15624273D01*
X53620480Y-15410400D01*
X53063527Y-15409603D01*
X52548663Y-15622003D01*
X52545266Y-15624273D01*
X52458020Y-15851653D01*
X51681980Y-15851653D01*
X51594734Y-15624273D01*
X51080480Y-15410400D01*
X50523527Y-15409603D01*
X50008663Y-15622003D01*
X50005266Y-15624273D01*
X49918020Y-15851653D01*
X49141979Y-15851653D01*
X49214133Y-15779499D01*
X49114703Y-15541731D01*
X48564297Y-15311192D01*
X47967565Y-15308832D01*
X47415353Y-15535012D01*
X47405297Y-15541731D01*
X47305868Y-15779497D01*
X47219516Y-15693145D01*
X47184123Y-15728539D01*
X46739618Y-15284034D01*
X46078042Y-15010000D01*
X45361958Y-15010000D01*
X44700382Y-15284034D01*
X44194034Y-15790382D01*
X43920000Y-16451958D01*
X43920000Y-17168042D01*
X44194034Y-17829618D01*
X44215346Y-17850930D01*
X43910279Y-18307496D01*
X43802368Y-18850000D01*
X43802368Y-19850000D01*
X43910279Y-20392504D01*
X44217583Y-20852417D01*
X44677496Y-21159721D01*
X45220000Y-21267632D01*
X45989475Y-21267632D01*
X45944002Y-21377414D01*
X45944002Y-21894586D01*
X46141915Y-22372391D01*
X46219002Y-22449478D01*
X46219002Y-22897000D01*
X44249803Y-22897000D01*
X43393940Y-22041138D01*
X43393940Y-21932120D01*
X43196027Y-21454315D01*
X42830331Y-21088619D01*
X42352526Y-20890706D01*
X41835354Y-20890706D01*
X41357549Y-21088619D01*
X41198878Y-21247290D01*
X41102087Y-21013615D01*
X40736391Y-20647919D01*
X40258586Y-20450006D01*
X40149568Y-20450006D01*
X40046161Y-20346599D01*
X39988977Y-20261017D01*
X39649929Y-20034472D01*
X39350943Y-19975000D01*
X39350939Y-19975000D01*
X39249994Y-19954921D01*
X39149049Y-19975000D01*
X32063478Y-19975000D01*
X31986391Y-19897913D01*
X31508586Y-19700000D01*
X30991414Y-19700000D01*
X30513609Y-19897913D01*
X30147913Y-20263609D01*
X29950000Y-20741414D01*
X975000Y-20741414D01*
X975000Y-4323698D01*
X1600000Y-4323698D01*
X1600000Y-5676302D01*
X2117619Y-6925945D01*
X3074055Y-7882381D01*
X4323698Y-8400000D01*
X5676302Y-8400000D01*
X6925945Y-7882381D01*
X7266259Y-7542067D01*
X9700000Y-7542067D01*
X9700000Y-8297933D01*
X9989258Y-8996263D01*
X10523737Y-9530742D01*
X11222067Y-9820000D01*
X11977933Y-9820000D01*
X12676263Y-9530742D01*
X13210742Y-8996263D01*
X13229697Y-8950501D01*
X59745867Y-8950501D01*
X59845297Y-9188269D01*
X60395703Y-9418808D01*
X60992435Y-9421168D01*
X61544647Y-9194988D01*
X61554703Y-9188269D01*
X61654133Y-8950501D01*
X60700000Y-7996368D01*
X59745867Y-8950501D01*
X13229697Y-8950501D01*
X13500000Y-8297933D01*
X13500000Y-8212435D01*
X59198832Y-8212435D01*
X59425012Y-8764647D01*
X59431731Y-8774703D01*
X59669499Y-8874133D01*
X60623632Y-7920000D01*
X60776368Y-7920000D01*
X61730501Y-8874133D01*
X61968269Y-8774703D01*
X62198808Y-8224297D01*
X62201168Y-7627565D01*
X61974988Y-7075353D01*
X61968269Y-7065297D01*
X61730501Y-6965867D01*
X60776368Y-7920000D01*
X60623632Y-7920000D01*
X59669499Y-6965867D01*
X59431731Y-7065297D01*
X59201192Y-7615703D01*
X59198832Y-8212435D01*
X13500000Y-8212435D01*
X13500000Y-7542067D01*
X13229698Y-6889499D01*
X59745867Y-6889499D01*
X60700000Y-7843632D01*
X61654133Y-6889499D01*
X61554703Y-6651731D01*
X61004297Y-6421192D01*
X60407565Y-6418832D01*
X59855353Y-6645012D01*
X59845297Y-6651731D01*
X59745867Y-6889499D01*
X13229698Y-6889499D01*
X13210742Y-6843737D01*
X12676263Y-6309258D01*
X11977933Y-6020000D01*
X11222067Y-6020000D01*
X10523737Y-6309258D01*
X9989258Y-6843737D01*
X9700000Y-7542067D01*
X7266259Y-7542067D01*
X7882381Y-6925945D01*
X8400000Y-5676302D01*
X8400000Y-4323698D01*
X7882381Y-3074055D01*
X6925945Y-2117619D01*
X5676302Y-1600000D01*
X4323698Y-1600000D01*
X3074055Y-2117619D01*
X2117619Y-3074055D01*
X1600000Y-4323698D01*
X975000Y-4323698D01*
X975000Y-2131128D01*
X1236428Y-1790428D01*
X1608863Y-1504649D01*
X2042573Y-1325000D01*
X2521109Y-1262000D01*
X10260995Y-1262000D01*
X9989258Y-1533737D01*
G36*
X51221913Y-27960391D02*
X51587609Y-28326087D01*
X52065414Y-28524000D01*
X52582586Y-28524000D01*
X53060391Y-28326087D01*
X53168384Y-28218094D01*
X53056000Y-28489414D01*
X53056000Y-28739000D01*
X45128569Y-28739000D01*
X44734000Y-28344432D01*
X44734000Y-28235414D01*
X44573943Y-27849001D01*
X51175774Y-27849001D01*
X51221913Y-27960391D01*
X51221913Y-27960391D01*
G37*
X51221913Y-27960391D02*
X51587609Y-28326087D01*
X52065414Y-28524000D01*
X52582586Y-28524000D01*
X53060391Y-28326087D01*
X53168384Y-28218094D01*
X53056000Y-28489414D01*
X53056000Y-28739000D01*
X45128569Y-28739000D01*
X44734000Y-28344432D01*
X44734000Y-28235414D01*
X44573943Y-27849001D01*
X51175774Y-27849001D01*
X51221913Y-27960391D01*
G04 #@! TD*
M02*
