M48
;DRILL file {KiCad (5.0.2)-1} date 24.02.2020 21:14:26
;FORMAT={-:-/ absolute / metric / decimal}
FMAT,2
METRIC,TZ
T1C0.400
T2C0.800
T3C1.000
T4C2.000
T5C4.000
%
G90
G05
T1
X31.25Y-21.
X33.4Y-18.1
X35.56Y-24.176
X37.592Y-24.938
X37.8Y-22.8
X39.25Y-30.
X40.Y-21.75
X41.91Y-29.002
X42.094Y-22.191
X43.434Y-28.494
X45.729Y-25.192
X46.6Y-31.6
X46.99Y-28.494
X47.244Y-21.636
X48.768Y-23.668
X51.562Y-21.128
X52.324Y-27.224
X53.594Y-26.208
X54.356Y-28.748
X55.2Y-34.4
X55.626Y-29.764
X58.Y-23.4
X59.4Y-32.
T2
X45.72Y-16.81
X45.72Y-19.35
X48.26Y-16.81
X48.26Y-19.35
X50.8Y-16.81
X50.8Y-19.35
X53.34Y-16.81
X53.34Y-19.35
X55.88Y-16.81
X55.88Y-19.35
X48.72Y-37.8
X53.6Y-37.8
T3
X11.6Y-7.92
X60.7Y-7.92
T4
X11.6Y-2.61
T5
X5.Y-5.
X5.Y-43.
X60.Y-43.
T0
M30
