G04 #@! TF.GenerationSoftware,KiCad,Pcbnew,(5.0.2)-1*
G04 #@! TF.CreationDate,2020-02-24T21:14:20+01:00*
G04 #@! TF.ProjectId,Poziomica 1.0,506f7a69-6f6d-4696-9361-20312e302e6b,rev?*
G04 #@! TF.SameCoordinates,Original*
G04 #@! TF.FileFunction,Legend,Top*
G04 #@! TF.FilePolarity,Positive*
%FSLAX46Y46*%
G04 Gerber Fmt 4.6, Leading zero omitted, Abs format (unit mm)*
G04 Created by KiCad (PCBNEW (5.0.2)-1) date 24.02.2020 21:14:20*
%MOMM*%
%LPD*%
G01*
G04 APERTURE LIST*
%ADD10C,0.200000*%
%ADD11C,0.300000*%
%ADD12C,0.100000*%
%ADD13C,0.120000*%
%ADD14C,0.254000*%
%ADD15C,0.150000*%
G04 APERTURE END LIST*
D10*
X12192000Y-19858000D02*
X12192000Y-28748000D01*
X34544000Y-19858000D02*
X34544000Y-29002000D01*
X13970000Y-29510000D02*
X33274000Y-29510000D01*
X13208000Y-19096000D02*
X33528000Y-19096000D01*
D11*
X20935428Y-22587571D02*
X21221142Y-22587571D01*
X21364000Y-22659000D01*
X21506857Y-22801857D01*
X21578285Y-23087571D01*
X21578285Y-23587571D01*
X21506857Y-23873285D01*
X21364000Y-24016142D01*
X21221142Y-24087571D01*
X20935428Y-24087571D01*
X20792571Y-24016142D01*
X20649714Y-23873285D01*
X20578285Y-23587571D01*
X20578285Y-23087571D01*
X20649714Y-22801857D01*
X20792571Y-22659000D01*
X20935428Y-22587571D01*
X22935428Y-24087571D02*
X22221142Y-24087571D01*
X22221142Y-22587571D01*
X23435428Y-23301857D02*
X23935428Y-23301857D01*
X24149714Y-24087571D02*
X23435428Y-24087571D01*
X23435428Y-22587571D01*
X24149714Y-22587571D01*
X24792571Y-24087571D02*
X24792571Y-22587571D01*
X25149714Y-22587571D01*
X25364000Y-22659000D01*
X25506857Y-22801857D01*
X25578285Y-22944714D01*
X25649714Y-23230428D01*
X25649714Y-23444714D01*
X25578285Y-23730428D01*
X25506857Y-23873285D01*
X25364000Y-24016142D01*
X25149714Y-24087571D01*
X24792571Y-24087571D01*
X20006857Y-26637571D02*
X20006857Y-25137571D01*
X20578285Y-25137571D01*
X20721142Y-25209000D01*
X20792571Y-25280428D01*
X20864000Y-25423285D01*
X20864000Y-25637571D01*
X20792571Y-25780428D01*
X20721142Y-25851857D01*
X20578285Y-25923285D01*
X20006857Y-25923285D01*
X21435428Y-26209000D02*
X22149714Y-26209000D01*
X21292571Y-26637571D02*
X21792571Y-25137571D01*
X22292571Y-26637571D01*
X22792571Y-26637571D02*
X22792571Y-25137571D01*
X23649714Y-26637571D01*
X23649714Y-25137571D01*
X24364000Y-25851857D02*
X24864000Y-25851857D01*
X25078285Y-26637571D02*
X24364000Y-26637571D01*
X24364000Y-25137571D01*
X25078285Y-25137571D01*
X26435428Y-26637571D02*
X25721142Y-26637571D01*
X25721142Y-25137571D01*
D10*
X36068000Y-36876000D02*
X10414000Y-36876000D01*
X37084000Y-17826000D02*
X37084000Y-35860000D01*
X10668000Y-17064000D02*
X36322000Y-17064000D01*
X9652000Y-35860000D02*
X9652000Y-17826000D01*
D12*
G04 #@! TO.C,SW2*
X41780000Y-33760000D02*
X41480000Y-33760000D01*
X41480000Y-33760000D02*
X41480000Y-38800000D01*
X41480000Y-38800000D02*
X41780000Y-38800000D01*
X46080000Y-38800000D02*
X46520000Y-38800000D01*
X46520000Y-38800000D02*
X46520000Y-33760000D01*
X46520000Y-33760000D02*
X46180000Y-33760000D01*
X46080000Y-33760000D02*
X46180000Y-33760000D01*
X42780000Y-33300000D02*
X42780000Y-33300000D01*
X42780000Y-33200000D02*
X42780000Y-33200000D01*
X42780000Y-33200000D02*
G75*
G03X42780000Y-33300000I0J-50000D01*
G01*
X42780000Y-33300000D02*
G75*
G03X42780000Y-33200000I0J50000D01*
G01*
G04 #@! TO.C,SW1*
X56780000Y-33760000D02*
X56480000Y-33760000D01*
X56480000Y-33760000D02*
X56480000Y-38800000D01*
X56480000Y-38800000D02*
X56780000Y-38800000D01*
X61080000Y-38800000D02*
X61520000Y-38800000D01*
X61520000Y-38800000D02*
X61520000Y-33760000D01*
X61520000Y-33760000D02*
X61180000Y-33760000D01*
X61080000Y-33760000D02*
X61180000Y-33760000D01*
X57780000Y-33300000D02*
X57780000Y-33300000D01*
X57780000Y-33200000D02*
X57780000Y-33200000D01*
X57780000Y-33200000D02*
G75*
G03X57780000Y-33300000I0J-50000D01*
G01*
X57780000Y-33300000D02*
G75*
G03X57780000Y-33200000I0J50000D01*
G01*
D13*
G04 #@! TO.C,C11*
X52971267Y-34290000D02*
X52628733Y-34290000D01*
X52971267Y-35310000D02*
X52628733Y-35310000D01*
G04 #@! TO.C,C12*
X48428733Y-34290000D02*
X48771267Y-34290000D01*
X48428733Y-35310000D02*
X48771267Y-35310000D01*
G04 #@! TO.C,SW2*
D14*
X42306666Y-36661047D02*
X42488095Y-36721523D01*
X42790476Y-36721523D01*
X42911428Y-36661047D01*
X42971904Y-36600571D01*
X43032380Y-36479619D01*
X43032380Y-36358666D01*
X42971904Y-36237714D01*
X42911428Y-36177238D01*
X42790476Y-36116761D01*
X42548571Y-36056285D01*
X42427619Y-35995809D01*
X42367142Y-35935333D01*
X42306666Y-35814380D01*
X42306666Y-35693428D01*
X42367142Y-35572476D01*
X42427619Y-35512000D01*
X42548571Y-35451523D01*
X42850952Y-35451523D01*
X43032380Y-35512000D01*
X43455714Y-35451523D02*
X43758095Y-36721523D01*
X44000000Y-35814380D01*
X44241904Y-36721523D01*
X44544285Y-35451523D01*
X44967619Y-35572476D02*
X45028095Y-35512000D01*
X45149047Y-35451523D01*
X45451428Y-35451523D01*
X45572380Y-35512000D01*
X45632857Y-35572476D01*
X45693333Y-35693428D01*
X45693333Y-35814380D01*
X45632857Y-35995809D01*
X44907142Y-36721523D01*
X45693333Y-36721523D01*
G04 #@! TO.C,SW1*
X57306666Y-36661047D02*
X57488095Y-36721523D01*
X57790476Y-36721523D01*
X57911428Y-36661047D01*
X57971904Y-36600571D01*
X58032380Y-36479619D01*
X58032380Y-36358666D01*
X57971904Y-36237714D01*
X57911428Y-36177238D01*
X57790476Y-36116761D01*
X57548571Y-36056285D01*
X57427619Y-35995809D01*
X57367142Y-35935333D01*
X57306666Y-35814380D01*
X57306666Y-35693428D01*
X57367142Y-35572476D01*
X57427619Y-35512000D01*
X57548571Y-35451523D01*
X57850952Y-35451523D01*
X58032380Y-35512000D01*
X58455714Y-35451523D02*
X58758095Y-36721523D01*
X59000000Y-35814380D01*
X59241904Y-36721523D01*
X59544285Y-35451523D01*
X60693333Y-36721523D02*
X59967619Y-36721523D01*
X60330476Y-36721523D02*
X60330476Y-35451523D01*
X60209523Y-35632952D01*
X60088571Y-35753904D01*
X59967619Y-35814380D01*
G04 #@! TO.C,C11*
D15*
X52157142Y-33157142D02*
X52109523Y-33204761D01*
X51966666Y-33252380D01*
X51871428Y-33252380D01*
X51728571Y-33204761D01*
X51633333Y-33109523D01*
X51585714Y-33014285D01*
X51538095Y-32823809D01*
X51538095Y-32680952D01*
X51585714Y-32490476D01*
X51633333Y-32395238D01*
X51728571Y-32300000D01*
X51871428Y-32252380D01*
X51966666Y-32252380D01*
X52109523Y-32300000D01*
X52157142Y-32347619D01*
X53109523Y-33252380D02*
X52538095Y-33252380D01*
X52823809Y-33252380D02*
X52823809Y-32252380D01*
X52728571Y-32395238D01*
X52633333Y-32490476D01*
X52538095Y-32538095D01*
X54061904Y-33252380D02*
X53490476Y-33252380D01*
X53776190Y-33252380D02*
X53776190Y-32252380D01*
X53680952Y-32395238D01*
X53585714Y-32490476D01*
X53490476Y-32538095D01*
G04 #@! TO.C,C12*
X47957142Y-33157142D02*
X47909523Y-33204761D01*
X47766666Y-33252380D01*
X47671428Y-33252380D01*
X47528571Y-33204761D01*
X47433333Y-33109523D01*
X47385714Y-33014285D01*
X47338095Y-32823809D01*
X47338095Y-32680952D01*
X47385714Y-32490476D01*
X47433333Y-32395238D01*
X47528571Y-32300000D01*
X47671428Y-32252380D01*
X47766666Y-32252380D01*
X47909523Y-32300000D01*
X47957142Y-32347619D01*
X48909523Y-33252380D02*
X48338095Y-33252380D01*
X48623809Y-33252380D02*
X48623809Y-32252380D01*
X48528571Y-32395238D01*
X48433333Y-32490476D01*
X48338095Y-32538095D01*
X49290476Y-32347619D02*
X49338095Y-32300000D01*
X49433333Y-32252380D01*
X49671428Y-32252380D01*
X49766666Y-32300000D01*
X49814285Y-32347619D01*
X49861904Y-32442857D01*
X49861904Y-32538095D01*
X49814285Y-32680952D01*
X49242857Y-33252380D01*
X49861904Y-33252380D01*
G04 #@! TD*
M02*
